<svg xmlns="http://www.w3.org/2000/svg" version="1.1" xmlns:xlink="http://www.w3.org/1999/xlink" width="512" height="512" x="0" y="0" viewBox="0 0 499.999 499.999" style="enable-background:new 0 0 512 512" xml:space="preserve" class=""><g><linearGradient xmlns="http://www.w3.org/2000/svg" id="SVGID_1_" gradientUnits="userSpaceOnUse" x1="0" x2="499.998" y1="250" y2="250"><stop stop-opacity="1" stop-color="#60aeff" offset="0"></stop><stop stop-opacity="1" stop-color="#60aeff" offset="0.5"></stop><stop stop-opacity="1" stop-color="#60aeff" offset="1"></stop></linearGradient><linearGradient xmlns="http://www.w3.org/2000/svg" id="SVGID_2_" gradientUnits="userSpaceOnUse" x1="135.323" x2="443.298" y1="102.267" y2="410.242"><stop offset="0"></stop><stop offset="1" stop-opacity="0"></stop></linearGradient><g xmlns="http://www.w3.org/2000/svg"><g><circle cx="249.999" cy="249.999" fill="url(#SVGID_1_)" r="249.999" data-original="url(#SVGID_1_)"></circle><path d="m499.999 249.999c0-4.267-.107-8.509-.321-12.728l-88.523-88.523h-71.23l-17.855 63.464-62.815-62.813h-18.832l-24.281 53.6-54.252-54.253h-73.047l66.112 202.5 143.952 143.954c114.652-22.739 201.092-123.869 201.092-245.201z" fill="url(#SVGID_2_)" opacity=".49" data-original="url(#SVGID_2_)"></path><path d="m411.155 148.749-64.513 202.5h-56.216l-40.066-90.706-39.187 90.706h-56.218l-66.112-202.5h73.047l30.664 106.329 47.869-105.678h18.832l50.48 106.655 30.19-107.3z" fill="#ffffff" data-original="#ffffff" class=""></path></g></g></g></svg>